<svg version="1.1" xmlns="http://www.w3.org/2000/svg" xmlns:xlink="http://www.w3.org/1999/xlink" width="156.20356" height="275.2" viewBox="0,0,156.20356,275.2"><g transform="translate(-272.44644,-42.75)"><g data-paper-data="{&quot;isPaintingLayer&quot;:true}" fill-rule="nonzero" stroke-linejoin="miter" stroke-miterlimit="10" stroke-dasharray="" stroke-dashoffset="0" style="mix-blend-mode: normal"><g fill="none" stroke="#9483e6" stroke-width="1.5" stroke-linecap="round"><path d="M384.24886,63.31909v17.85356"/><path d="M364.42977,81.17265h19.81909"/><path d="M364.42977,77.15969v4.01296"/><path d="M360.41682,73.22864l4.01296,3.93106"/><path d="M364.42977,271.58333v15.88803"/><path d="M364.42977,307.29045v-15.88803"/><path d="M364.42977,311.22151h3.93106"/><path d="M348.54174,73.22864h3.93106"/><path d="M364.42977,311.22151v4.01296"/><path d="M364.42977,315.23447h-7.94402"/><path d="M356.48576,315.23447v-4.01296"/><path d="M356.48576,311.22151h-4.01296"/><path d="M352.4728,311.22151v-3.93106"/><path d="M352.4728,307.29045h4.01296"/><path d="M356.48576,291.40242v15.88803"/><path d="M356.48576,291.40242h-4.01296"/><path d="M356.48576,287.47136h-4.01296"/><path d="M344.61068,287.47136l-4.01296,-4.01296"/><path d="M340.59773,279.52735v3.93106"/><path d="M320.77864,279.52735h19.81909"/><path d="M320.77864,279.52735v17.85356"/><path d="M340.59773,297.38091h-19.81909"/><path d="M340.59773,297.38091v-5.97849"/><path d="M352.4728,291.40242h-3.93106"/><path d="M348.54174,287.47136h-3.93106"/><path d="M352.4728,287.47136h-3.93106"/><path d="M344.61068,291.40242h-4.01296"/><path d="M344.61068,291.40242h3.93106"/><path d="M352.4728,291.40242v-3.93106"/><path d="M356.48576,271.58333v15.88803"/><path d="M344.61068,307.29045l-4.01296,-4.01296"/><path d="M340.59773,303.2775v-3.93106"/><path d="M340.59773,299.34644h-19.81909"/><path d="M320.77864,299.34644v17.85356"/><path d="M340.59773,317.2h-19.81909"/><path d="M340.59773,311.22151v5.97849"/><path d="M344.61068,307.29045h3.93106"/><path d="M368.36083,287.47136h-3.93106"/><path d="M340.59773,311.22151h4.01296"/><path d="M348.54174,311.22151h-3.93106"/><path d="M348.54174,69.29758h3.93106"/><path d="M352.4728,311.22151h-3.93106"/><path d="M352.4728,307.29045h-3.93106"/><path d="M380.3178,303.2775l-4.01296,4.01296"/><path d="M380.3178,299.34644v3.93106"/><path d="M400.13689,299.34644h-19.81909"/><path d="M400.13689,299.34644v17.85356"/><path d="M380.3178,317.2h19.81909"/><path d="M380.3178,317.2v-5.97849"/><path d="M348.54174,69.29758v-15.88803"/><path d="M372.37379,307.29045h3.93106"/><path d="M372.37379,307.29045h-4.01296"/><path d="M376.30485,311.22151h4.01296"/><path d="M376.30485,311.22151h-3.93106"/><path d="M348.54174,53.40955h3.93106"/><path d="M352.4728,53.40955v-4.01296"/><path d="M376.30485,291.40242h-3.93106"/><path d="M376.30485,291.40242h4.01296"/><path d="M348.54174,49.39659h3.93106"/><path d="M372.37379,287.47136h3.93106"/><path d="M368.36083,291.40242h4.01296"/><path d="M380.3178,297.38091v-5.97849"/><path d="M380.3178,297.38091h19.81909"/><path d="M400.13689,297.38091v-17.85356"/><path d="M380.3178,279.52735h19.81909"/><path d="M380.3178,279.52735v3.93106"/><path d="M380.3178,283.45841l-4.01296,4.01296"/><path d="M348.54174,45.46553v3.93106"/><path d="M340.59772,243.82023l4.01296,3.93106"/><path d="M340.59773,239.80727v4.01296"/><path d="M320.77864,239.80727h19.81909"/><path d="M320.77864,257.66083v-17.85356"/><path d="M320.77864,257.66083h19.81909"/><path d="M340.59773,257.66083v-5.89659"/><path d="M364.42977,267.57038h3.93106"/><path d="M348.54174,247.75129h-3.93106"/><path d="M364.42977,251.76424h3.93106"/><path d="M340.59773,251.76424h4.01296"/><path d="M348.54174,251.76424h-3.93106"/><path d="M364.42977,231.86326h3.93106"/><path d="M340.59772,263.63932l4.01296,3.93106"/><path d="M340.59773,259.70826v3.93106"/><path d="M320.77864,259.70826h19.81909"/><path d="M320.77864,277.47992v-17.77166"/><path d="M340.59773,277.47992h-19.81909"/><path d="M340.59773,271.58333v5.89659"/><path d="M348.54174,267.57038h-3.93106"/><path d="M340.59772,271.58333h4.01296"/><path d="M344.61068,271.58333h3.93106"/><path d="M352.4728,271.58333h-3.93106"/><path d="M368.36083,247.75129h-3.93106"/><path d="M380.3178,263.63932l-4.01296,3.93106"/><path d="M380.3178,259.70826v3.93106"/><path d="M380.3178,259.70826h19.81909"/><path d="M400.13689,277.47992v-17.77166"/><path d="M380.3178,277.47992h19.81909"/><path d="M380.3178,277.47992v-5.89659"/><path d="M372.37379,271.58333h-4.01296"/><path d="M372.37379,267.57038h3.93106"/><path d="M368.36083,267.57038h4.01296"/><path d="M380.31781,271.58333h-4.01296"/><path d="M376.30485,271.58333h-3.93106"/><path d="M368.36083,267.57038v4.01296"/><path d="M368.36083,247.75129v4.01296"/><path d="M376.30485,251.76424h-3.93106"/><path d="M380.3178,251.76424h-4.01296"/><path d="M372.37379,247.75129h-4.01296"/><path d="M376.30485,247.75129h-3.93106"/><path d="M368.36083,251.76424h4.01296"/><path d="M380.3178,251.76424v5.89659"/><path d="M380.3178,257.66083h19.81909"/><path d="M400.13689,257.66083v-17.85356"/><path d="M380.3178,239.80727h19.81909"/><path d="M380.3178,243.82023v-4.01296"/><path d="M376.30485,247.75129l4.01296,-3.93106"/><path d="M364.42977,227.9322h3.93106"/><path d="M352.4728,231.86326v-3.93106"/><path d="M348.54174,267.57038h3.93106"/><path d="M352.4728,251.76424v-4.01296"/><path d="M348.54174,247.75129h3.93106"/><path d="M348.54174,251.76424h3.93106"/><path d="M352.4728,271.58333v-4.01296"/><path d="M368.36083,287.47136h4.01296"/><path d="M372.37379,311.22151h-4.01296"/><path d="M368.36083,307.29045h-3.93106"/><path d="M368.36083,307.29045v3.93106"/><path d="M364.42977,271.58333h3.93106"/><path d="M368.36083,291.40242v-3.93106"/><path d="M340.59773,224.00114l4.01296,3.93106"/><path d="M340.59773,219.98818v4.01296"/><path d="M340.59773,219.98818h-19.81909"/><path d="M320.77864,237.84174v-17.85356"/><path d="M340.59773,237.84174h-19.81909"/><path d="M340.59773,231.86326v5.97849"/><path d="M344.61068,227.9322h3.93106"/><path d="M340.59773,231.86326h4.01296"/><path d="M344.61068,231.86326h3.93106"/><path d="M348.54175,45.46553h-7.94402"/><path d="M364.42977,210.07864v17.85356"/><path d="M400.13689,224.00114h-19.81909"/><path d="M400.13689,237.84174v-13.8406"/><path d="M380.3178,237.84174h19.81909"/><path d="M380.3178,237.84174v-5.97849"/><path d="M368.36083,231.86326h4.01296"/><path d="M376.30485,227.9322h-3.93106"/><path d="M372.37379,227.9322h-4.01296"/><path d="M380.3178,231.86326h-4.01296"/><path d="M376.30485,231.86326h-3.93106"/><path d="M368.36083,231.86326v-3.93106"/><path d="M364.42977,231.86326v15.88803"/><path d="M368.36083,291.40242h-3.93106"/><path d="M340.59773,45.46553v3.93106"/><path d="M340.59773,49.39659h-3.93106"/><path d="M352.4728,247.75129h4.01296"/><path d="M356.48576,247.75129v-15.88803"/><path d="M352.4728,231.86326h4.01296"/><path d="M340.59773,69.29758v-15.88803"/><path d="M340.59773,89.11667v-15.88803"/><path d="M364.42977,251.76425v15.80613"/><path d="M356.48576,251.76425v15.80613"/><path d="M356.48576,267.57038h-4.01296"/><path d="M348.54174,231.86326h3.93106"/><path d="M348.54174,227.9322h3.93106"/><path d="M356.48576,227.9322h-4.01296"/><path d="M356.48576,210.07864v17.85356"/><path d="M352.4728,251.76424h4.01296"/><path d="M356.48576,271.58333h-4.01296"/><path d="M364.42977,63.31909h19.81909"/><path d="M364.42977,63.31909v5.97849"/><path d="M356.48576,69.29758h-4.01296"/><path d="M360.41682,73.22864h-3.93106"/><path d="M356.48576,73.22864h-4.01296"/><path d="M364.42978,69.29758h-4.01296"/><path d="M360.41682,69.29758h-3.93106"/><path d="M352.4728,69.29758v3.93106"/><path d="M348.54174,73.22864v15.88803"/><path d="M360.41682,53.40955l4.01296,3.93106"/><path d="M364.42977,57.3406v4.01296"/><path d="M364.42977,61.35356h19.81909"/><path d="M384.24886,43.5v17.85356"/><path d="M364.42977,43.5h19.81909"/><path d="M364.42977,43.5v5.89659"/><path d="M360.41682,53.40955h-3.93106"/><path d="M336.66667,73.22864h3.93106"/><path d="M364.42977,49.39659h-4.01296"/><path d="M356.48576,49.39659h3.93106"/><path d="M356.48576,49.39659h-4.01296"/><path d="M356.48576,53.40955h-4.01296"/><path d="M324.70969,57.3406l4.01296,-3.93106"/><path d="M324.70969,61.35356v-4.01296"/><path d="M324.70969,61.35356h-19.81909"/><path d="M304.8906,61.35356v-17.85356"/><path d="M324.70969,43.5h-19.81909"/><path d="M324.70969,49.39659v-5.89659"/><path d="M332.65371,53.40955h-3.93106"/><path d="M332.65371,53.40955h4.01296"/><path d="M328.72265,49.39659h-4.01296"/><path d="M328.72265,49.39659h3.93106"/><path d="M328.72265,69.29758h3.93106"/><path d="M324.70969,69.29758h4.01296"/><path d="M328.72265,73.22864h3.93106"/><path d="M336.66667,69.29758h-4.01296"/><path d="M324.70969,63.31909v5.97849"/><path d="M324.70969,63.31909h-19.81909"/><path d="M304.8906,63.31909v17.85356"/><path d="M304.8906,81.17265h19.81909"/><path d="M324.70969,77.15969v4.01296"/><path d="M324.70969,77.15969l4.01296,-3.93106"/><path d="M364.42977,116.87977l-4.01296,-4.01296"/><path d="M364.42977,120.81083v-3.93106"/><path d="M364.42977,120.81083h19.81909"/><path d="M384.24886,120.81083v-17.85356"/><path d="M364.42977,102.95727h19.81909"/><path d="M364.42977,102.95727v5.97849"/><path d="M340.59773,93.04773h-3.93106"/><path d="M360.41682,112.86682h-3.93106"/><path d="M340.59773,108.93576h-3.93106"/><path d="M360.41682,108.93576h4.01296"/><path d="M356.48576,108.93576h3.93106"/><path d="M340.59773,128.75485h-3.93106"/><path d="M360.41682,93.04773l4.01296,4.01296"/><path d="M364.42977,100.99174v-3.93106"/><path d="M364.42977,100.99174h19.81909"/><path d="M384.24886,100.99174v-17.85356"/><path d="M364.42977,83.13818h19.81909"/><path d="M364.42977,89.11667v-5.97849"/><path d="M360.41682,93.04773h-3.93106"/><path d="M364.42977,89.11667h-4.01296"/><path d="M356.48576,89.11667h3.93106"/><path d="M356.48576,89.11667h-4.01296"/><path d="M340.59773,112.86682h-3.93106"/><path d="M328.72265,93.04772l-4.01296,4.01296"/><path d="M324.70969,97.06068v3.93106"/><path d="M304.8906,100.99174h19.81909"/><path d="M304.8906,100.99174v-17.85356"/><path d="M304.8906,83.13818h19.81909"/><path d="M324.70969,83.13818v5.97849"/><path d="M336.66667,89.11667h-4.01296"/><path d="M328.72265,93.04773h3.93106"/><path d="M332.65371,93.04773h4.01296"/><path d="M328.72265,89.11667h-4.01296"/><path d="M332.65371,89.11667h-3.93106"/><path d="M336.66667,89.11667v3.93106"/><path d="M336.66667,108.93576v3.93106"/><path d="M332.65371,108.93576h-3.93106"/><path d="M328.72265,108.93576h-4.01296"/><path d="M332.65371,112.86682h4.01296"/><path d="M332.65371,112.86682h-3.93106"/><path d="M336.66667,108.93576h-4.01296"/><path d="M324.70969,108.93576v-5.97849"/><path d="M324.70969,102.95727h-19.81909"/><path d="M304.8906,120.81083v-17.85356"/><path d="M304.8906,120.81083h19.81909"/><path d="M324.70969,116.87977v3.93106"/><path d="M328.72265,112.86681l-4.01296,4.01296"/><path d="M336.66667,132.7678h3.93106"/><path d="M352.4728,128.75485v4.01296"/><path d="M356.48576,93.04773h-4.01296"/><path d="M352.4728,112.86682v-3.93106"/><path d="M352.4728,112.86682h4.01296"/><path d="M352.4728,108.93576h4.01296"/><path d="M352.4728,89.11667v3.93106"/><path d="M332.65371,73.22864h4.01296"/><path d="M332.65371,49.39659h4.01296"/><path d="M336.66667,53.40955h3.93106"/><path d="M336.66667,49.39659v4.01296"/><path d="M340.59773,89.11667h-3.93106"/><path d="M336.66667,69.29758v3.93106"/><path d="M360.41682,132.7678l4.01296,3.93106"/><path d="M364.42977,136.69886v3.93106"/><path d="M384.24886,140.62992h-19.81909"/><path d="M384.24886,122.77636v17.85356"/><path d="M364.42977,122.77636h19.81909"/><path d="M364.42977,122.77636v5.97849"/><path d="M360.41682,132.7678h-3.93106"/><path d="M360.41682,128.75485h4.01296"/><path d="M360.41682,128.75485h-3.93106"/><path d="M340.59773,150.53947v-17.77166"/><path d="M328.72265,132.7678l-4.01296,3.93106"/><path d="M324.70969,140.62992v-3.93106"/><path d="M304.8906,140.62992h19.81909"/><path d="M304.8906,140.62992v-17.85356"/><path d="M324.70969,122.77636h-19.81909"/><path d="M324.70969,122.77636v5.97849"/><path d="M332.65371,128.75485h4.01296"/><path d="M332.65371,132.7678h-3.93106"/><path d="M336.66667,132.7678h-4.01296"/><path d="M328.72265,128.75485h-4.01296"/><path d="M328.72265,128.75485h3.93106"/><path d="M336.66667,128.75485v4.01296"/><path d="M340.59773,112.86682v15.88803"/><path d="M336.66667,69.29758h3.93106"/><path d="M348.54174,112.86682h3.93106"/><path d="M348.54174,112.86682v15.88803"/><path d="M348.54174,128.75485h3.93106"/><path d="M340.59773,108.93576v-15.88803"/><path d="M348.54174,108.93576v-15.88803"/><path d="M352.4728,93.04773h-3.93106"/><path d="M352.4728,128.75485h4.01296"/><path d="M356.48576,132.7678h-4.01296"/><path d="M348.54174,132.7678h3.93106"/><path d="M348.54174,150.53947v-17.77166"/><path d="M352.4728,108.93576h-3.93106"/><path d="M352.4728,89.11667h-3.93106"/><path d="M356.48576,210.07864l-4.01296,-7.94402"/><path d="M364.42977,210.07864l3.93106,-7.94402"/><path d="M364.42977,194.1906l3.93106,7.94402"/><path d="M364.42977,190.25955v3.93106"/><path d="M352.4728,202.13462l4.01296,-7.94402"/><path d="M356.48576,194.1906v-3.93106"/><path d="M328.72265,190.25955h27.76311"/><path d="M328.72265,192.22507v-1.96553"/><path d="M320.77864,192.22508v-1.96553"/><path d="M320.77864,192.22507v1.96553"/><path d="M328.72265,192.22507v1.96553"/><path d="M320.77864,192.22507h7.94402"/><path d="M312.83462,190.25955h7.94402"/><path d="M304.8906,198.20357l7.94402,-7.94402"/><path d="M293.01553,198.20356h11.87507"/><path d="M293.01553,166.4275v31.77606"/><path d="M293.01553,166.4275h11.87507"/><path d="M304.8906,166.4275l7.94402,7.94402"/><path d="M340.59773,174.37151h-27.76311"/><path d="M340.59773,172.40598v-1.96553"/><path d="M348.54174,170.44045v1.96553"/><path d="M340.59773,172.40598v1.96553"/><path d="M348.54174,174.37151v-1.96553"/><path d="M340.59772,172.40598h7.94402"/><path d="M340.59773,150.53946v19.90099"/><path d="M348.54174,150.53947v9.99144"/><path d="M352.4728,194.1906h-23.75015"/><path d="M348.54174,202.13462l3.93106,-7.94402"/><path d="M348.54174,202.13462l3.93106,7.94402"/><path d="M352.4728,218.02266v-7.94402"/><path d="M352.4728,218.02265h-59.45727"/><path d="M293.01553,218.02265v-15.88803"/><path d="M304.8906,202.13462h-11.87507"/><path d="M304.8906,202.13462l7.94402,-7.94402"/><path d="M320.77864,194.1906h-7.94402"/><path d="M372.37379,202.13462l-4.01296,7.94402"/><path d="M372.37379,202.13462l-4.01296,-7.94402"/><path d="M396.12394,190.25955h-31.69417"/><path d="M396.12394,194.1906v-1.96553"/><path d="M404.06795,192.22507v-1.96553"/><path d="M396.12394,192.22508v-1.96553"/><path d="M396.12394,192.22507h7.94402"/><path d="M376.30485,172.40598v1.96553"/><path d="M384.24886,172.40598v1.96553"/><path d="M384.24886,172.40598v-1.96553"/><path d="M376.30485,172.40598v-1.96553"/><path d="M376.30485,172.40598h7.94402"/><path d="M376.30485,174.37151h-27.76311"/><path d="M412.01197,190.25955h-7.94402"/><path d="M412.01197,182.31553v7.94402"/><path d="M419.95598,182.31553h-7.94402"/><path d="M419.95598,206.14758v-23.83205"/><path d="M388.17992,206.14758h31.77606"/><path d="M388.17992,206.14758v15.80613"/><path d="M388.17992,221.95371h19.81909"/><path d="M407.99901,233.91068v-11.95697"/><path d="M407.99901,233.91068h19.90099"/><path d="M427.9,233.91068v-59.53917"/><path d="M427.9,174.37151h-43.65114"/><path d="M417.99045,192.22507v11.87507"/><path d="M417.99045,204.10015h-31.77606"/><path d="M386.21439,204.10015v5.97849"/><path d="M386.21439,210.07864h-17.85356"/><path d="M396.12394,194.1906h-27.76311"/><path d="M392.19288,170.44045h-7.94402"/><path d="M392.19288,170.44045v-23.83205"/><path d="M372.37379,146.60841h19.81909"/><path d="M372.37379,170.44046v-23.83205"/><path d="M372.37379,170.44045h3.93106"/><path d="M348.54174,170.44045v-5.97849"/><path d="M350.50727,164.46197v-3.93106"/><path d="M350.50727,146.60841h19.81909"/><path d="M370.32636,170.44045v-23.83205"/><path d="M370.32636,170.44045h-19.81909"/><path d="M380.3178,224.00114l-4.01296,3.93106"/><path d="M417.99045,192.22507h-13.9225"/><path d="M350.50727,164.46197h-1.96553"/><path d="M350.50727,160.53091h-1.96553"/><path d="M350.50727,160.53091v-13.9225"/><path d="M350.50727,164.46197v5.97849"/><path d="M293.01553,170.44045h-15.88803"/><path d="M277.1275,170.44045v7.94402"/><path d="M277.1275,178.38447h15.88803"/><path d="M277.1275,218.02265v-35.70712"/><path d="M289.08447,182.31553h-11.95697"/><path d="M293.01553,194.1906h-3.93106"/><path d="M289.08447,186.24659h3.93106"/><path d="M289.08447,186.24659v-3.93106"/><path d="M277.1275,218.02265h11.95697"/><path d="M289.08447,194.1906v23.83205"/><path d="M293.01553,166.4275h-19.81909"/><path d="M273.19644,182.31553v-15.88803"/><path d="M277.1275,182.31553h-3.93106"/><path d="M306.85613,146.60841h31.77606"/><path d="M338.6322,170.44045v-5.97849"/><path d="M314.80015,170.44045h23.83205"/><path d="M314.80015,170.44046l-7.94402,-7.94402"/><path d="M338.6322,160.53091h1.96553"/><path d="M340.59773,164.46197h-1.96553"/><path d="M338.6322,146.60841v13.9225"/><path d="M338.6322,160.53091v3.93106"/><path d="M306.85613,162.49644v-15.88803"/></g><path d="M383.25,158.5c0,-1.38071 1.11929,-2.5 2.5,-2.5c1.38071,0 2.5,1.11929 2.5,2.5c0,1.38071 -1.11929,2.5 -2.5,2.5c-1.38071,0 -2.5,-1.11929 -2.5,-2.5z" fill="#3cd3e6" stroke="none" stroke-width="0" stroke-linecap="butt"/><text transform="translate(311.18803,293.375) scale(0.38082,0.38082)" font-size="40" xml:space="preserve" fill="#e63c3c" fill-rule="nonzero" stroke="none" stroke-width="1" stroke-linecap="butt" stroke-linejoin="miter" stroke-miterlimit="10" stroke-dasharray="" stroke-dashoffset="0" font-family="Sans Serif" font-weight="normal" text-anchor="start" style="mix-blend-mode: normal"><tspan x="0" dy="0">!</tspan></text></g></g></svg>