<svg version="1.1" xmlns="http://www.w3.org/2000/svg" xmlns:xlink="http://www.w3.org/1999/xlink" width="76.45325" height="53.94935" viewBox="0,0,76.45325,53.94935"><g transform="translate(-201.10714,-146.21494)"><g data-paper-data="{&quot;isPaintingLayer&quot;:true}" fill-rule="nonzero" stroke-width="4.5" stroke-linecap="butt" stroke-linejoin="miter" stroke-miterlimit="10" stroke-dasharray="" stroke-dashoffset="0" style="mix-blend-mode: normal"><path d="M207.795,192.54l17.67,-39.33l44.46,35.91z" fill="#00d0ff" stroke="#00add0"/><path d="M203.35714,192.51039c0,-2.98449 2.41941,-5.4039 5.4039,-5.4039c2.98449,0 5.4039,2.41941 5.4039,5.4039c0,2.98449 -2.41941,5.4039 -5.4039,5.4039c-2.98449,0 -5.4039,-2.41941 -5.4039,-5.4039z" fill="#ffe700" stroke="#d1c400"/><path d="M220.53117,153.86883c0,-2.98449 2.41941,-5.4039 5.4039,-5.4039c2.98449,0 5.4039,2.41941 5.4039,5.4039c0,2.98449 -2.41941,5.4039 -5.4039,5.4039c-2.98449,0 -5.4039,-2.41941 -5.4039,-5.4039z" fill="#ffe700" stroke="#d1c400"/><path d="M264.5026,188.95714c0,-2.98449 2.41941,-5.4039 5.4039,-5.4039c2.98449,0 5.4039,2.41941 5.4039,5.4039c0,2.98449 -2.41941,5.4039 -5.4039,5.4039c-2.98449,0 -5.4039,-2.41941 -5.4039,-5.4039z" fill="#ffe700" stroke="#d1c400"/></g></g></svg>